<?xml version="1.0" encoding="UTF-8"?>
<svg id="Ebene_2" data-name="Ebene 2" xmlns="http://www.w3.org/2000/svg" viewBox="0 0 489.06 205.25">
  <g id="Ebene_1-2" data-name="Ebene 1-2">
    <g>
      <g>
        <g isolation="isolate">
          <g isolation="isolate">
            <path d="M244.17,96.25V20.78h-11.76V2.84h43.34v17.94h-11.76v75.47h-19.83Z" fill="#1d1d1b"/>
            <path d="M281.29,96.25V2.84h39.65v18.05h-19.48v18.16h18.67v17.62h-18.67v21.42h20.75v18.16h-40.92Z" fill="#1d1d1b"/>
            <path d="M337.31,96.25V20.78h-11.76V2.84h43.34v17.94h-11.76v75.47h-19.83Z" fill="#1d1d1b"/>
            <path d="M374.42,2.84h30.43c4.84,0,8.59,1.03,11.24,3.1,2.65,2.07,4.44,4.97,5.36,8.7.92,3.73,1.38,8.5,1.38,14.3,0,5.29-.73,9.42-2.19,12.4-1.46,2.97-4,5.04-7.61,6.2,3,.58,5.17,2,6.51,4.24,1.34,2.25,2.02,5.29,2.02,9.13l-.23,35.34h-19.36v-36.54c0-2.61-.54-4.28-1.61-5-1.08-.72-3.04-1.09-5.88-1.09v42.63h-20.06V2.84ZM399.32,37.42c2.77,0,4.15-2.83,4.15-8.48,0-2.46-.12-4.31-.35-5.54-.23-1.23-.65-2.08-1.27-2.56-.62-.47-1.5-.71-2.65-.71h-4.61v17.29h4.73Z" fill="#1d1d1b"/>
            <path d="M426.75,96.25l9.57-93.41h33.54l9.45,93.41h-18.79l-1.38-15.12h-11.99l-1.15,15.12h-19.25ZM448.65,66.23h8.99l-4.38-47.52h-.92l-3.69,47.52Z" fill="#1d1d1b"/>
          </g>
        </g>
        <g isolation="isolate">
          <g isolation="isolate">
            <path d="M238.31,109.01h25.34c6.81,0,11.76,1.67,14.84,5,3.08,3.34,4.62,8.77,4.62,16.31v4.13c0,8.92-3.19,14.24-9.57,15.98,3.91,1.02,6.67,3.37,8.26,7.07,1.59,3.7,2.39,8.59,2.39,14.68,0,9.93-1.49,17.45-4.46,22.56-2.97,5.11-8.34,7.67-16.09,7.67h-25.34v-93.41ZM260.38,144.13c1.59,0,2.68-.6,3.26-1.79.58-1.2.87-2.88.87-5.06v-9.35c0-3.04-1.34-4.57-4.02-4.57h-3.92v20.77h3.81ZM265.71,179.04v-11.63c0-2.83-.42-4.96-1.25-6.42-.83-1.45-2.3-2.17-4.4-2.17h-3.48v27.08l1.85.11c4.86,0,7.29-2.32,7.29-6.96Z" fill="#1d1d1b"/>
            <path d="M290.39,109.01h28.71c4.57,0,8.1,1.03,10.6,3.1s4.19,4.97,5.06,8.7c.87,3.73,1.3,8.5,1.3,14.3,0,5.29-.69,9.42-2.07,12.4-1.38,2.97-3.77,5.04-7.18,6.2,2.83.58,4.88,1.99,6.14,4.24,1.27,2.25,1.9,5.29,1.9,9.13l-.22,35.34h-18.27v-36.54c0-2.61-.51-4.28-1.52-5-1.02-.72-2.86-1.09-5.55-1.09v42.63h-18.92v-93.41ZM313.88,143.59c2.61,0,3.91-2.83,3.91-8.48,0-2.46-.11-4.31-.33-5.55-.22-1.23-.62-2.08-1.2-2.56-.58-.47-1.41-.71-2.5-.71h-4.35v17.29h4.46Z" fill="#1d1d1b"/>
            <path d="M339.76,202.41l9.03-93.41h31.64l8.92,93.41h-17.72l-1.3-15.11h-11.31l-1.09,15.11h-18.16ZM360.42,172.4h8.48l-4.13-47.52h-.87l-3.48,47.52Z" fill="#1d1d1b"/>
            <path d="M398.8,196.98c-3.77-4.2-5.66-10.98-5.66-20.33v-9.13h18.38v11.63c0,4.64,1.49,6.96,4.46,6.96,1.67,0,2.83-.49,3.48-1.47.65-.98.98-2.63.98-4.95,0-3.04-.36-5.56-1.09-7.56-.73-1.99-1.65-3.66-2.77-5-1.12-1.34-3.14-3.42-6.04-6.25l-8.05-8.05c-6.24-6.09-9.35-12.83-9.35-20.23,0-7.97,1.83-14.04,5.49-18.21,3.66-4.17,9.01-6.25,16.04-6.25,8.41,0,14.46,2.23,18.16,6.69,3.7,4.46,5.55,11.44,5.55,20.93h-19.03l-.11-6.42c0-1.23-.34-2.21-1.03-2.94-.69-.72-1.65-1.09-2.88-1.09-1.45,0-2.54.4-3.26,1.2-.73.8-1.09,1.89-1.09,3.26,0,3.04,1.74,6.2,5.22,9.46l10.87,10.44c2.54,2.46,4.64,4.8,6.31,7.01,1.67,2.21,3.01,4.82,4.02,7.83,1.01,3.01,1.52,6.58,1.52,10.71,0,9.21-1.69,16.19-5.06,20.93-3.37,4.75-8.94,7.12-16.69,7.12-8.48,0-14.61-2.1-18.38-6.31Z" fill="#1d1d1b"/>
            <path d="M448.93,196.98c-3.77-4.2-5.66-10.98-5.66-20.33v-9.13h18.38v11.63c0,4.64,1.49,6.96,4.46,6.96,1.67,0,2.83-.49,3.48-1.47.65-.98.98-2.63.98-4.95,0-3.04-.36-5.56-1.09-7.56-.73-1.99-1.65-3.66-2.77-5-1.12-1.34-3.14-3.42-6.04-6.25l-8.05-8.05c-6.24-6.09-9.35-12.83-9.35-20.23,0-7.97,1.83-14.04,5.49-18.21,3.66-4.17,9.01-6.25,16.04-6.25,8.41,0,14.46,2.23,18.16,6.69,3.7,4.46,5.55,11.44,5.55,20.93h-19.03l-.11-6.42c0-1.23-.34-2.21-1.03-2.94-.69-.72-1.65-1.09-2.88-1.09-1.45,0-2.54.4-3.26,1.2-.73.8-1.09,1.89-1.09,3.26,0,3.04,1.74,6.2,5.22,9.46l10.87,10.44c2.54,2.46,4.64,4.8,6.31,7.01,1.67,2.21,3.01,4.82,4.02,7.83,1.01,3.01,1.52,6.58,1.52,10.71,0,9.21-1.69,16.19-5.06,20.93-3.37,4.75-8.94,7.12-16.69,7.12-8.48,0-14.61-2.1-18.38-6.31Z" fill="#1d1d1b"/>
          </g>
        </g>
      </g>
      <g>
        <rect x="2.84" y="2.84" width="199.58" height="199.58" fill="none" stroke="#1d1d1b" stroke-miterlimit="10" stroke-width="5.67"/>
        <rect x="12.6" y="12.6" width="131.73" height="131.73" fill="none" stroke="#1d1d1b" stroke-miterlimit="10" stroke-width="5.67"/>
        <rect x="22.35" y="22.35" width="99.79" height="99.79" fill="none" stroke="#1d1d1b" stroke-miterlimit="10" stroke-width="5.67"/>
        <rect x="32.1" y="32.09" width="79.83" height="79.83" fill="none" stroke="#1d1d1b" stroke-miterlimit="10" stroke-width="5.67"/>
      </g>
    </g>
  </g>
</svg>